<svg xmlns="http://www.w3.org/2000/svg" viewBox="0 0 100 100" width="100" height="100" aria-labelledby="title16">
  <title id="title16">Wide Gem (Wider, Reflected Light)</title>
  <defs>
    <linearGradient id="g1" x1="0" x2="1" y1="0" y2="1">
      <stop offset="0" stop-color="#8ee9ff"/>
      <stop offset="0.6" stop-color="#00a3ff"/>
      <stop offset="1" stop-color="#0073b8"/>
    </linearGradient>
    <linearGradient id="g2" x1="0" x2="1" y1="0" y2="1">
      <stop offset="0" stop-color="#dff8ff"/>
      <stop offset="1" stop-color="#66d4ff"/>
    </linearGradient>
  </defs>

  <g>
    <!-- outer shape: wider -->
    <path d="M10 40 L28 22 L50 18 L72 22 L90 40 L50 90 L10 40 Z"
          fill="url(#g1)" stroke="#0a6aa0" stroke-width="2"/>

    <!-- top crown facets -->
    <path d="M28 22 L50 18 L72 22 L50 28 Z"
          fill="url(#g2)" opacity="0.9"/>
    <path d="M10 40 L28 22 L50 28 L28 40 Z" fill="#66d4ff" opacity="0.5"/>
    <path d="M90 40 L72 22 L50 28 L72 40 Z" fill="#66d4ff" opacity="0.5"/>

    <!-- lower facets (reflecting top light) -->
    <path d="M28 40 L50 28 L50 90 L10 40 Z" fill="url(#g2)" opacity="0.35"/> <!-- left side -->
    <path d="M50 28 L72 40 L50 90 L50 50 Z" fill="url(#g1)" opacity="0.25"/> <!-- middle -->
    <path d="M72 40 L90 40 L50 90 L50 50 Z" fill="url(#g2)" opacity="0.3"/> <!-- right side -->

    <!-- highlights -->
    <!-- top -->
    <path d="M32 24 L50 18 L68 24 L50 28 Z"
          fill="#e6fbff" opacity="0.6"/>
    <!-- side-front highlight -->
    <path d="M53 50 L57 45 L60 50 L57 55 Z"
          fill="#e6fbff" opacity="0.35"/>
  </g>
</svg>
