<svg xmlns="http://www.w3.org/2000/svg" viewBox="0 0 100 100" width="100" height="100" aria-labelledby="title18">
  <title id="title18">Wireframe Gem (Snapped Borders)</title>
  <defs>
    <linearGradient id="strokeGradient" x1="0" x2="1" y1="0" y2="1">
      <stop offset="0" stop-color="#00c3ff"/>
      <stop offset="1" stop-color="#0073b8"/>
    </linearGradient>
  </defs>

  <g fill="none" stroke="url(#strokeGradient)" stroke-width="2" stroke-linejoin="round" stroke-linecap="round">
    <!-- outer shape -->
    <path d="M10 40 L28 22 L50 18 L72 22 L90 40 L50 90 L10 40 Z"/>

    <!-- top crown facets -->
    <path d="M28 22 L50 18 L72 22 L50 28 Z"/>
    <path d="M10 40 L28 22 L50 28 L28 40 Z"/>
    <path d="M90 40 L72 22 L50 28 L72 40 Z"/>

    <!-- lower facets -->
    <path d="M28 40 L50 28 L50 90 L10 40 Z"/>
    <path d="M50 28 L72 40 L50 90 L50 50 Z"/>
    <path d="M72 40 L90 40 L50 90 L50 50 Z"/>
  </g>
</svg>
